<?xml version="1.0" standalone="no"?><!DOCTYPE svg PUBLIC "-//W3C//DTD SVG 1.1//EN" "http://www.w3.org/Graphics/SVG/1.1/DTD/svg11.dtd"><svg t="1730188497989" class="icon" viewBox="0 0 1024 1024" version="1.1" xmlns="http://www.w3.org/2000/svg" p-id="4007" xmlns:xlink="http://www.w3.org/1999/xlink" width="81" height="81"><path d="M831.513034 191.94666H703.58748v-32.242332c0-17.520025-14.202467-31.722492-31.722492-31.722492h-0.515747c-17.520025 0-31.722492 14.202467-31.722492 31.722492v32.242332H383.78485v-32.242332c0-17.520025-14.202467-31.722492-31.722492-31.722492h-0.515747c-17.520025 0-31.722492 14.202467-31.722492 31.722492v32.242332H191.898565c-35.322483 0-63.956637 28.634154-63.956638 63.956638v575.645552c0 35.322483 28.634154 63.956637 63.956638 63.956637h639.614469c35.322483 0 63.956637-28.634154 63.956638-63.956637V255.903298c0-35.322483-28.634154-63.956637-63.956638-63.956638z m-0.004093 607.879698c0 17.520025-14.202467 31.722492-31.722492 31.722492H223.62515c-17.520025 0-31.722492-14.202467-31.722492-31.722492V447.784466h639.606283v352.041892z m0-416.002622H191.902658v-96.19897c0-17.520025 14.202467-31.722492 31.722492-31.722492h96.198969v32.238239c0 17.520025 14.202467 31.722492 31.722492 31.722492h0.515747c17.520025 0 31.722492-14.202467 31.722492-31.722492v-32.238239h255.842922v32.238239c0 17.520025 14.202467 31.722492 31.722493 31.722492h0.515746c17.520025 0 31.722492-14.202467 31.722492-31.722492v-32.238239h96.198969c17.520025 0 31.722492 14.202467 31.722492 31.722492v96.19897z" fill="#767676" p-id="4008"></path><path d="M287.585881 575.705927h64.476477c17.520025 0 31.722492-14.202467 31.722492-31.722492v-0.515746c0-17.520025-14.202467-31.722492-31.722492-31.722492h-64.476477c-17.520025 0-31.722492 14.202467-31.722492 31.722492v0.515746c0 17.520025 14.202467 31.722492 31.722492 31.722492zM479.468073 575.705927h64.476477c17.520025 0 31.722492-14.202467 31.722492-31.722492v-0.515746c0-17.520025-14.202467-31.722492-31.722492-31.722492h-64.476477c-17.520025 0-31.722492 14.202467-31.722493 31.722492v0.515746c0 17.520025 14.202467 31.722492 31.722493 31.722492zM671.350265 575.705927h64.476476c17.520025 0 31.722492-14.202467 31.722493-31.722492v-0.515746c0-17.520025-14.202467-31.722492-31.722493-31.722492h-64.476476c-17.520025 0-31.722492 14.202467-31.722493 31.722492v0.515746c0 17.520025 14.202467 31.722492 31.722493 31.722492zM287.585881 703.627389h64.476477c17.520025 0 31.722492-14.202467 31.722492-31.722493v-0.515746c0-17.520025-14.202467-31.722492-31.722492-31.722492h-64.476477c-17.520025 0-31.722492 14.202467-31.722492 31.722492v0.515746c0 17.520025 14.202467 31.722492 31.722492 31.722493zM479.468073 703.627389h64.476477c17.520025 0 31.722492-14.202467 31.722492-31.722493v-0.515746c0-17.520025-14.202467-31.722492-31.722492-31.722492h-64.476477c-17.520025 0-31.722492 14.202467-31.722493 31.722492v0.515746c0 17.520025 14.202467 31.722492 31.722493 31.722493zM671.350265 703.627389h64.476476c17.520025 0 31.722492-14.202467 31.722493-31.722493v-0.515746c0-17.520025-14.202467-31.722492-31.722493-31.722492h-64.476476c-17.520025 0-31.722492 14.202467-31.722493 31.722492v0.515746c0 17.520025 14.202467 31.722492 31.722493 31.722493z" fill="#767676" p-id="4009"></path></svg>