<?xml version="1.0" standalone="no"?><!DOCTYPE svg PUBLIC "-//W3C//DTD SVG 1.1//EN" "http://www.w3.org/Graphics/SVG/1.1/DTD/svg11.dtd"><svg t="1731246146131" class="icon" viewBox="0 0 1024 1024" version="1.1" xmlns="http://www.w3.org/2000/svg" p-id="3584" xmlns:xlink="http://www.w3.org/1999/xlink" width="81" height="81"><path d="M754.432 242.432a19.2 19.2 0 0 0 27.136 0l81.664-81.664A19.2 19.2 0 0 0 849.664 128h-163.328a19.2 19.2 0 0 0-13.568 32.768l81.664 81.664zM128 192a32 32 0 0 1 32-32h384a32 32 0 0 1 0 64h-384A32 32 0 0 1 128 192zM160 320a32 32 0 0 1 32 32V448h133.44a96 96 0 1 1 0 64H192v256h133.44a96 96 0 1 1 0 64H160a32 32 0 0 1-32-32v-448a32 32 0 0 1 32-32z m256 192a32 32 0 1 0 0-64 32 32 0 0 0 0 64z m32 288a32 32 0 1 0-64 0 32 32 0 0 0 64 0zM608 448a32 32 0 0 0 0 64h192a32 32 0 0 0 0-64h-192zM576 800a32 32 0 0 1 32-32h192a32 32 0 0 1 0 64h-192a32 32 0 0 1-32-32z" p-id="3585" fill="#767676"></path></svg>